<?xml version="1.0" encoding="utf-8"?>
<!-- Generator: Adobe Illustrator 18.1.1, SVG Export Plug-In . SVG Version: 6.00 Build 0)  -->
<svg version="1.1" xmlns="http://www.w3.org/2000/svg" xmlns:xlink="http://www.w3.org/1999/xlink" x="0px" y="0px"
	 viewBox="0 0 32 32" enable-background="new 0 0 32 32" xml:space="preserve">
<g id="Layer_1">
</g>
<g id="Layer_2">
</g>
<g id="Layer_3">
	<g>
		<g>
			<path fill="#DA8127" stroke="#2B2B2B" stroke-width="3" stroke-miterlimit="10" d="M16.1,27L16.1,27c-0.6-0.4-0.9-0.9-0.7-1.3
				l3.7-5.8c0.2-0.3,0.8-0.3,1.3,0l0,0c0.6,0.3,0.8,0.9,0.6,1.2L17.4,27C17.2,27.3,16.6,27.3,16.1,27z"/>
			<path fill="#DA8127" stroke="#2B2B2B" stroke-width="3" stroke-miterlimit="10" d="M11.4,12L11.4,12c0.5-0.5,1.2-0.5,1.7,0
				l7.6,7.9c0.4,0.4,0.4,1.1,0,1.6l0,0c-0.4,0.5-1.2,0.5-1.6,0l-7.6-7.9C11,13.1,11,12.4,11.4,12z"/>
			<path fill="#E5E01A" stroke="#2B2B2B" stroke-width="3" stroke-miterlimit="10" d="M17.8,18.5L17.8,18.5c-1.1,1.2-1.1,3.1,0,4.2
				l0,0c1.1,1.2,2.9,1.2,4,0l0,0c1.1-1.2,1.1-3.1,0-4.2l0,0C20.7,17.3,18.9,17.3,17.8,18.5z"/>
			<path fill="#DA8127" stroke="#2B2B2B" stroke-width="3" stroke-miterlimit="10" d="M11.4,13.2L11.4,13.2c-0.5-0.5-0.5-1.2,0-1.7
				L19.2,4c0.4-0.4,1.1-0.4,1.6,0l0,0c0.5,0.4,0.5,1.2,0,1.6L13,13.2C12.5,13.7,11.8,13.7,11.4,13.2z"/>
			<path fill="#E5E01A" stroke="#2B2B2B" stroke-width="3" stroke-miterlimit="10" d="M17.9,6.9L17.9,6.9C19.1,8,21,8,22.1,6.9l0,0
				c1.2-1.1,1.2-2.9,0-4l0,0c-1.2-1.1-3.1-1.1-4.2,0l0,0C16.8,3.9,16.8,5.8,17.9,6.9z"/>
			<path fill="#E5E01A" stroke="#2B2B2B" stroke-width="3" stroke-miterlimit="10" d="M9.9,14.5L9.9,14.5c1.2,1.1,3.1,1.1,4.2,0l0,0
				c1.2-1.1,1.2-2.9,0-4l0,0c-1.2-1.1-3.1-1.1-4.2,0l0,0C8.8,11.6,8.8,13.4,9.9,14.5z"/>
			<g>
				<path fill="#DA8127" stroke="#2B2B2B" stroke-width="3" stroke-miterlimit="10" d="M15.9,28.3H11c-0.6,0-1.1-0.5-1.1-1.1V27
					c0-0.6,0.5-1.1,1.1-1.1h4.9c0.6,0,1.1,0.5,1.1,1.1v0.3C16.9,27.9,16.5,28.3,15.9,28.3z"/>
				<path fill="#E5E01A" stroke="#2B2B2B" stroke-width="3" stroke-miterlimit="10" d="M13,27L13,27c0,1.6,1.4,2.9,3,3h0
					c1.6,0,2.9-1.3,2.9-2.9v0c0-1.6-1.4-2.9-3-3h0C14.2,24.1,13,25.4,13,27z"/>
			</g>
		</g>
		<g>
			<path fill="#DA8127" d="M16.1,27L16.1,27c-0.6-0.4-0.9-0.9-0.7-1.3l3.7-5.8c0.2-0.3,0.8-0.3,1.3,0l0,0c0.6,0.3,0.8,0.9,0.6,1.2
				L17.4,27C17.2,27.3,16.6,27.3,16.1,27z"/>
			<path fill="#DA8127" d="M11.4,12L11.4,12c0.5-0.5,1.2-0.5,1.7,0l7.6,7.9c0.4,0.4,0.4,1.1,0,1.6l0,0c-0.4,0.5-1.2,0.5-1.6,0
				l-7.6-7.9C11,13.1,11,12.4,11.4,12z"/>
			<path fill="#E5E01A" d="M17.8,18.5L17.8,18.5c-1.1,1.2-1.1,3.1,0,4.2l0,0c1.1,1.2,2.9,1.2,4,0l0,0c1.1-1.2,1.1-3.1,0-4.2l0,0
				C20.7,17.3,18.9,17.3,17.8,18.5z"/>
			<path fill="#DA8127" d="M11.4,13.2L11.4,13.2c-0.5-0.5-0.5-1.2,0-1.7L19.2,4c0.4-0.4,1.1-0.4,1.6,0l0,0c0.5,0.4,0.5,1.2,0,1.6
				L13,13.2C12.5,13.7,11.8,13.7,11.4,13.2z"/>
			<path fill="#E5E01A" d="M17.9,6.9L17.9,6.9C19.1,8,21,8,22.1,6.9l0,0c1.2-1.1,1.2-2.9,0-4l0,0c-1.2-1.1-3.1-1.1-4.2,0l0,0
				C16.8,3.9,16.8,5.8,17.9,6.9z"/>
			<path fill="#E5E01A" d="M9.9,14.5L9.9,14.5c1.2,1.1,3.1,1.1,4.2,0l0,0c1.2-1.1,1.2-2.9,0-4l0,0c-1.2-1.1-3.1-1.1-4.2,0l0,0
				C8.8,11.6,8.8,13.4,9.9,14.5z"/>
			<g>
				<path fill="#DA8127" d="M15.9,28.3H11c-0.6,0-1.1-0.5-1.1-1.1V27c0-0.6,0.5-1.1,1.1-1.1h4.9c0.6,0,1.1,0.5,1.1,1.1v0.3
					C16.9,27.9,16.5,28.3,15.9,28.3z"/>
				<path fill="#E5E01A" d="M13,27L13,27c0,1.6,1.4,2.9,3,3h0c1.6,0,2.9-1.3,2.9-2.9v0c0-1.6-1.4-2.9-3-3h0C14.2,24.1,13,25.4,13,27
					z"/>
			</g>
		</g>
	</g>
</g>
</svg>
