<?xml version="1.0" encoding="utf-8"?>
<!-- Generator: Adobe Illustrator 18.1.1, SVG Export Plug-In . SVG Version: 6.00 Build 0)  -->
<svg version="1.1" xmlns="http://www.w3.org/2000/svg" xmlns:xlink="http://www.w3.org/1999/xlink" x="0px" y="0px"
	 viewBox="0 0 32 32" enable-background="new 0 0 32 32" xml:space="preserve">
<g id="Layer_1">
</g>
<g id="Layer_2">
</g>
<g id="Layer_3">
	<g>
		<g>
			<g>
				<path fill="#2D608F" stroke="#2B2B2B" stroke-width="3" stroke-miterlimit="10" d="M10.1,14.9L10.1,14.9c0.6-0.7,1.5-0.7,2.1,0
					l9.4,10.2c0.5,0.6,0.5,1.5,0,2.1l0,0c-0.6,0.6-1.5,0.6-2.1,0L10.1,17C9.5,16.4,9.5,15.5,10.1,14.9z"/>
				<path fill="#3F87C7" stroke="#2B2B2B" stroke-width="3" stroke-miterlimit="10" d="M18,23.4L18,23.4c-1.4,1.5-1.4,4,0,5.5l0,0
					c1.4,1.5,3.6,1.5,5,0l0,0c1.4-1.5,1.4-4,0-5.5l0,0C21.7,21.9,19.4,21.9,18,23.4z"/>
			</g>
			<g>
				<path fill="#2D608F" stroke="#2B2B2B" stroke-width="3" stroke-miterlimit="10" d="M10,16.6L10,16.6C9.4,16,9.4,15,10,14.4
					l9.8-9.8c0.6-0.5,1.4-0.5,2,0l0,0c0.6,0.6,0.6,1.6,0,2.1L12,16.6C11.5,17.1,10.6,17.1,10,16.6z"/>
				<path fill="#3F87C7" stroke="#2B2B2B" stroke-width="3" stroke-miterlimit="10" d="M18.2,8.3L18.2,8.3c1.4,1.4,3.8,1.4,5.2,0
					l0,0c1.4-1.4,1.4-3.8,0-5.2l0,0c-1.4-1.4-3.8-1.4-5.2,0l0,0C16.8,4.5,16.8,6.9,18.2,8.3z"/>
				<path fill="#3F87C7" stroke="#2B2B2B" stroke-width="3" stroke-miterlimit="10" d="M8.2,18.3L8.2,18.3c1.4,1.4,3.8,1.4,5.2,0
					l0,0c1.4-1.4,1.4-3.8,0-5.2l0,0c-1.4-1.4-3.8-1.4-5.2,0l0,0C6.8,14.5,6.8,16.8,8.2,18.3z"/>
			</g>
		</g>
		<path fill="#DA8127" d="M10.1,14.9L10.1,14.9c0.6-0.7,1.5-0.7,2.1,0l9.4,10.2c0.5,0.6,0.5,1.5,0,2.1l0,0c-0.6,0.6-1.5,0.6-2.1,0
			L10.1,17C9.5,16.4,9.5,15.5,10.1,14.9z"/>
		<path fill="#E5E01A" d="M18,23.4L18,23.4c-1.4,1.5-1.4,4,0,5.5l0,0c1.4,1.5,3.6,1.5,5,0l0,0c1.4-1.5,1.4-4,0-5.5l0,0
			C21.7,21.9,19.4,21.9,18,23.4z"/>
		<path fill="#DA8127" d="M10,16.6L10,16.6C9.4,16,9.4,15,10,14.4l9.8-9.8c0.6-0.5,1.4-0.5,2,0l0,0c0.6,0.6,0.6,1.6,0,2.1L12,16.6
			C11.5,17.1,10.6,17.1,10,16.6z"/>
		<path fill="#E5E01A" d="M18.2,8.3L18.2,8.3c1.4,1.4,3.8,1.4,5.2,0l0,0c1.4-1.4,1.4-3.8,0-5.2l0,0c-1.4-1.4-3.8-1.4-5.2,0l0,0
			C16.8,4.5,16.8,6.9,18.2,8.3z"/>
		<path fill="#E5E01A" d="M8.2,18.3L8.2,18.3c1.4,1.4,3.8,1.4,5.2,0l0,0c1.4-1.4,1.4-3.8,0-5.2l0,0c-1.4-1.4-3.8-1.4-5.2,0l0,0
			C6.8,14.5,6.8,16.8,8.2,18.3z"/>
	</g>
</g>
</svg>
