<?xml version="1.0" encoding="utf-8"?>
<!-- Generator: Adobe Illustrator 18.1.1, SVG Export Plug-In . SVG Version: 6.00 Build 0)  -->
<svg version="1.1" id="Layer_1" xmlns="http://www.w3.org/2000/svg" xmlns:xlink="http://www.w3.org/1999/xlink" x="0px" y="0px"
	 viewBox="0 0 32 32" enable-background="new 0 0 32 32" xml:space="preserve">
<g>
	<g>
		<path fill="#7F7F7F" d="M10.5,18.9c-0.5,0-1-0.2-1.4-0.6c-0.8-0.8-0.8-2.1-0.1-2.8l11-11c0.4-0.4,0.9-0.6,1.4-0.6
			c0.5,0,1,0.2,1.4,0.6c0.8,0.8,0.8,2.1,0.1,2.8l-11,11C11.5,18.7,11,18.9,10.5,18.9z"/>
		<path d="M21.5,4.3c0.4,0,0.7,0.1,1,0.4l0.1,0.1c0.6,0.6,0.6,1.5,0,2.1l-11,11c-0.3,0.3-0.7,0.4-1,0.4s-0.7-0.1-1-0.4l-0.1-0.1
			c-0.6-0.6-0.6-1.5,0-2.1l11-11C20.7,4.5,21.1,4.3,21.5,4.3 M21.5,3.3c-0.7,0-1.3,0.3-1.7,0.7l-11,11c-1,1-1,2.5,0,3.5l0.1,0.1
			c0.5,0.5,1.1,0.7,1.7,0.7c0.7,0,1.3-0.3,1.7-0.7l11-11c1-1,1-2.5,0-3.5l-0.1-0.1C22.8,3.6,22.1,3.3,21.5,3.3L21.5,3.3z"/>
	</g>
	<g>
		<path fill="#7F7F7F" d="M20.3,28.5c-0.5,0-1-0.2-1.4-0.6l-11-11c-0.8-0.8-0.8-2,0-2.8c0.4-0.4,0.9-0.6,1.4-0.6s1,0.2,1.4,0.6
			l11,11c0.4,0.4,0.6,0.9,0.6,1.4s-0.2,1-0.6,1.4C21.3,28.3,20.8,28.5,20.3,28.5z"/>
		<path d="M9.3,14c0.4,0,0.7,0.1,1,0.4l11,11c0.6,0.6,0.6,1.5,0,2.1l-0.1,0.1c-0.3,0.3-0.7,0.4-1,0.4c-0.4,0-0.7-0.1-1-0.4l-11-11
			c-0.6-0.6-0.6-1.5,0-2.1l0.1-0.1C8.6,14.1,8.9,14,9.3,14 M9.3,13c-0.7,0-1.3,0.3-1.7,0.7l-0.1,0.1c-1,1-1,2.5,0,3.5l11,11
			c0.5,0.5,1.1,0.7,1.7,0.7s1.3-0.3,1.7-0.7l0.1-0.1c1-1,1-2.5,0-3.5l-11-11C10.6,13.2,10,13,9.3,13L9.3,13z"/>
	</g>
	<g>
		<path fill="#38B6E9" d="M20.8,11.9c-2.9,0-5.3-2.4-5.3-5.3c0-2.9,2.4-5.3,5.3-5.3c2.9,0,5.3,2.4,5.3,5.3
			C26.1,9.5,23.7,11.9,20.8,11.9z"/>
		<path d="M20.8,1.8c2.7,0,4.8,2.2,4.8,4.8s-2.2,4.8-4.8,4.8S16,9.2,16,6.6S18.2,1.8,20.8,1.8 M20.8,0.8c-3.2,0-5.8,2.6-5.8,5.8
			s2.6,5.8,5.8,5.8s5.8-2.6,5.8-5.8S24,0.8,20.8,0.8L20.8,0.8z"/>
	</g>
	<g>
		<path fill="#E8DE5F" d="M20.8,30.9c-2.9,0-5.3-2.4-5.3-5.3c0-2.9,2.4-5.3,5.3-5.3c2.9,0,5.3,2.4,5.3,5.3
			C26.1,28.6,23.7,30.9,20.8,30.9z"/>
		<path d="M20.8,20.8c2.7,0,4.8,2.2,4.8,4.8c0,2.7-2.2,4.8-4.8,4.8S16,28.3,16,25.6C16,23,18.2,20.8,20.8,20.8 M20.8,19.8
			c-3.2,0-5.8,2.6-5.8,5.8c0,3.2,2.6,5.8,5.8,5.8s5.8-2.6,5.8-5.8C26.6,22.4,24,19.8,20.8,19.8L20.8,19.8z"/>
	</g>
	<g>
		<path fill="#E43A90" d="M11.2,21.5c-2.9,0-5.3-2.4-5.3-5.3c0-2.9,2.4-5.3,5.3-5.3s5.3,2.4,5.3,5.3C16.5,19.1,14.1,21.5,11.2,21.5z
			"/>
		<path d="M11.2,11.4c2.7,0,4.8,2.2,4.8,4.8c0,2.7-2.2,4.8-4.8,4.8s-4.8-2.2-4.8-4.8C6.4,13.5,8.5,11.4,11.2,11.4 M11.2,10.4
			c-3.2,0-5.8,2.6-5.8,5.8c0,3.2,2.6,5.8,5.8,5.8s5.8-2.6,5.8-5.8C17,13,14.4,10.4,11.2,10.4L11.2,10.4z"/>
	</g>
</g>
<g>
	<path fill="#7F7F7F" d="M22.6,4.8L22.6,4.8C22,4.1,21,4.1,20.5,4.7l-11,11c-0.6,0.6-0.6,1.5,0,2.1l0.1,0.1c0.6,0.6,1.5,0.6,2.1,0
		l11-11C23.1,6.3,23.1,5.3,22.6,4.8z"/>
	<path fill="#7F7F7F" d="M21.3,27.5L21.3,27.5c0.6-0.6,0.6-1.6,0.1-2.1l-11-11c-0.6-0.6-1.5-0.6-2.1,0l-0.1,0.1
		c-0.6,0.6-0.6,1.5,0,2.1l11,11C19.8,28,20.7,28,21.3,27.5z"/>
	<circle fill="#38B6E9" cx="20.8" cy="6.5" r="4.8"/>
	<circle fill="#E8DE5F" cx="20.8" cy="25.6" r="4.8"/>
	<circle fill="#E43A90" cx="11.2" cy="16.1" r="4.8"/>
</g>
<g opacity="0.5">
	<path d="M20.8,1.7c2.7,0,4.8,2.2,4.8,4.8c0,2.7-2.2,4.8-4.8,4.8S16,9.1,16,6.5C16,3.8,18.2,1.7,20.8,1.7 M20.8,1.2
		c-2.9,0-5.3,2.4-5.3,5.3c0,2.9,2.4,5.3,5.3,5.3c2.9,0,5.3-2.4,5.3-5.3C26.1,3.6,23.7,1.2,20.8,1.2L20.8,1.2z"/>
</g>
<g opacity="0.5">
	<path d="M11.2,11.2c2.7,0,4.8,2.2,4.8,4.8c0,2.7-2.2,4.8-4.8,4.8S6.4,18.7,6.4,16C6.4,13.4,8.6,11.2,11.2,11.2 M11.2,10.7
		c-2.9,0-5.3,2.4-5.3,5.3c0,2.9,2.4,5.3,5.3,5.3c2.9,0,5.3-2.4,5.3-5.3C16.5,13.1,14.2,10.7,11.2,10.7L11.2,10.7z"/>
</g>
<g opacity="0.5">
	<path d="M20.8,20.8c2.7,0,4.8,2.2,4.8,4.8c0,2.7-2.2,4.8-4.8,4.8S16,28.3,16,25.6C16,23,18.2,20.8,20.8,20.8 M20.8,20.3
		c-2.9,0-5.3,2.4-5.3,5.3c0,2.9,2.4,5.3,5.3,5.3c2.9,0,5.3-2.4,5.3-5.3C26.1,22.7,23.7,20.3,20.8,20.3L20.8,20.3z"/>
</g>
</svg>
