<?xml version="1.0" encoding="utf-8"?>
<!-- Generator: Adobe Illustrator 18.1.1, SVG Export Plug-In . SVG Version: 6.00 Build 0)  -->
<svg version="1.1" id="Layer_1" xmlns="http://www.w3.org/2000/svg" xmlns:xlink="http://www.w3.org/1999/xlink" x="0px" y="0px"
	 viewBox="0 0 32 32" enable-background="new 0 0 32 32" xml:space="preserve">
<g>
	<path fill="#7F7F7F" d="M22.7,3.8L22.7,3.8c-0.7-0.7-1.7-0.7-2.3-0.1L8.5,15.6c-0.6,0.6-0.6,1.6,0,2.2l0.1,0.1
		c0.6,0.6,1.6,0.6,2.2,0L22.7,6C23.3,5.4,23.3,4.4,22.7,3.8z"/>
	<path fill="#7F7F7F" d="M21.4,28.3L21.4,28.3c0.7-0.7,0.7-1.7,0.1-2.3L9.5,14.1c-0.6-0.6-1.6-0.6-2.2,0l-0.1,0.1
		c-0.6,0.6-0.6,1.6,0,2.2l11.9,11.9C19.8,28.9,20.7,28.9,21.4,28.3z"/>
	<circle fill="#38B6E9" cx="20.8" cy="5.7" r="5.2"/>
	<circle fill="#E8DE5F" cx="20.8" cy="26.2" r="5.2"/>
	<circle fill="#E43A90" cx="10.5" cy="16" r="5.2"/>
</g>
</svg>
