<?xml version="1.0" encoding="utf-8"?>
<!-- Generator: Adobe Illustrator 18.1.1, SVG Export Plug-In . SVG Version: 6.00 Build 0)  -->
<svg version="1.1" xmlns="http://www.w3.org/2000/svg" xmlns:xlink="http://www.w3.org/1999/xlink" x="0px" y="0px"
	 viewBox="0 0 32 32" enable-background="new 0 0 32 32" xml:space="preserve">
<g id="Layer_1">
</g>
<g id="Layer_2">
</g>
<g id="Layer_3">
	<g>
		<g>
			<path fill="#2D608F" stroke="#2B2B2B" stroke-width="3" stroke-miterlimit="10" d="M26.1,26.3L26.1,26.3c-0.9,0.9-2.4,0.9-3.4,0
				L10.2,13.8c-0.9-0.9-0.9-2.4,0-3.4l0,0c0.9-0.9,2.4-0.9,3.4,0L26.1,23C27,23.9,27,25.4,26.1,26.3z"/>
			<path fill="#3F87C7" stroke="#2B2B2B" stroke-width="3" stroke-miterlimit="10" d="M16,16.3L16,16.3c2.3-2.3,2.3-6.1,0-8.4l0,0
				c-2.3-2.3-6.1-2.3-8.4,0l0,0c-2.3,2.3-2.3,6.1,0,8.4l0,0C9.9,18.6,13.7,18.6,16,16.3z"/>
		</g>
		<g>
			<path fill="#2D608F" d="M26.1,26.3L26.1,26.3c-0.9,0.9-2.4,0.9-3.4,0L10.2,13.8c-0.9-0.9-0.9-2.4,0-3.4l0,0
				c0.9-0.9,2.4-0.9,3.4,0L26.1,23C27,23.9,27,25.4,26.1,26.3z"/>
			<path fill="#3F87C7" d="M16,16.3L16,16.3c2.3-2.3,2.3-6.1,0-8.4l0,0c-2.3-2.3-6.1-2.3-8.4,0l0,0c-2.3,2.3-2.3,6.1,0,8.4l0,0
				C9.9,18.6,13.7,18.6,16,16.3z"/>
		</g>
	</g>
</g>
</svg>
