<?xml version="1.0" encoding="utf-8"?>
<!-- Generator: Adobe Illustrator 18.1.1, SVG Export Plug-In . SVG Version: 6.00 Build 0)  -->
<svg version="1.1" xmlns="http://www.w3.org/2000/svg" xmlns:xlink="http://www.w3.org/1999/xlink" x="0px" y="0px"
	 viewBox="0 0 32 32" enable-background="new 0 0 32 32" xml:space="preserve">
<g id="Layer_1">
</g>
<g id="Layer_2">
</g>
<g id="Layer_3">
	<g>
		<g>
			<g>
				<path fill="#2D608F" stroke="#2B2B2B" stroke-width="3" stroke-miterlimit="10" d="M10.4,15L10.4,15c0.6-0.7,1.5-0.7,2.1,0
					L22,25.2c0.5,0.6,0.5,1.5,0,2.1l0,0c-0.6,0.6-1.5,0.6-2.1,0L10.4,17C9.9,16.4,9.9,15.5,10.4,15z"/>
				<path fill="#3F87C7" stroke="#2B2B2B" stroke-width="3" stroke-miterlimit="10" d="M18.4,23.5L18.4,23.5c-1.4,1.5-1.4,4,0,5.5
					l0,0c1.4,1.5,3.6,1.5,5,0l0,0c1.4-1.5,1.4-4,0-5.5l0,0C22,22,19.8,22,18.4,23.5z"/>
			</g>
			<g>
				<path fill="#2D608F" stroke="#2B2B2B" stroke-width="3" stroke-miterlimit="10" d="M10.4,16.6L10.4,16.6c-0.6-0.6-0.6-1.6,0-2.2
					l9.8-9.8c0.6-0.5,1.4-0.5,2,0l0,0c0.6,0.6,0.6,1.6,0,2.1l-9.8,9.8C11.8,17.2,11,17.2,10.4,16.6z"/>
				<path fill="#3F87C7" stroke="#2B2B2B" stroke-width="3" stroke-miterlimit="10" d="M18.6,8.4L18.6,8.4c1.4,1.4,3.8,1.4,5.2,0
					l0,0c1.4-1.4,1.4-3.8,0-5.2l0,0c-1.4-1.4-3.8-1.4-5.2,0l0,0C17.1,4.6,17.1,6.9,18.6,8.4z"/>
				<path fill="#3F87C7" stroke="#2B2B2B" stroke-width="3" stroke-miterlimit="10" d="M8.6,18.3L8.6,18.3c1.4,1.4,3.8,1.4,5.2,0
					l0,0c1.4-1.4,1.4-3.8,0-5.2l0,0c-1.4-1.4-3.8-1.4-5.2,0l0,0C7.2,14.5,7.2,16.9,8.6,18.3z"/>
			</g>
		</g>
		<g>
			<g>
				<path fill="#2D608F" d="M10.4,15L10.4,15c0.6-0.7,1.5-0.7,2.1,0L22,25.2c0.5,0.6,0.5,1.5,0,2.1l0,0c-0.6,0.6-1.5,0.6-2.1,0
					L10.4,17C9.9,16.4,9.9,15.5,10.4,15z"/>
				<path fill="#3F87C7" d="M18.4,23.5L18.4,23.5c-1.4,1.5-1.4,4,0,5.5l0,0c1.4,1.5,3.6,1.5,5,0l0,0c1.4-1.5,1.4-4,0-5.5l0,0
					C22,22,19.8,22,18.4,23.5z"/>
			</g>
			<g>
				<path fill="#2D608F" d="M10.4,16.6L10.4,16.6c-0.6-0.6-0.6-1.6,0-2.2l9.8-9.8c0.6-0.5,1.4-0.5,2,0l0,0c0.6,0.6,0.6,1.6,0,2.1
					l-9.8,9.8C11.8,17.2,11,17.2,10.4,16.6z"/>
				<path fill="#3F87C7" d="M18.6,8.4L18.6,8.4c1.4,1.4,3.8,1.4,5.2,0l0,0c1.4-1.4,1.4-3.8,0-5.2l0,0c-1.4-1.4-3.8-1.4-5.2,0l0,0
					C17.1,4.6,17.1,6.9,18.6,8.4z"/>
				<path fill="#3F87C7" d="M8.6,18.3L8.6,18.3c1.4,1.4,3.8,1.4,5.2,0l0,0c1.4-1.4,1.4-3.8,0-5.2l0,0c-1.4-1.4-3.8-1.4-5.2,0l0,0
					C7.2,14.5,7.2,16.9,8.6,18.3z"/>
			</g>
		</g>
	</g>
</g>
</svg>
