<?xml version="1.0" encoding="utf-8"?>
<!-- Generator: Adobe Illustrator 18.1.1, SVG Export Plug-In . SVG Version: 6.00 Build 0)  -->
<svg version="1.1" xmlns="http://www.w3.org/2000/svg" xmlns:xlink="http://www.w3.org/1999/xlink" x="0px" y="0px"
	 viewBox="0 0 32 32" enable-background="new 0 0 32 32" xml:space="preserve">
<g id="Layer_1">
</g>
<g id="Layer_2">
</g>
<g id="Layer_3">
	<g>
		<g>
			<path fill="#AF853A" stroke="#2B2B2B" stroke-width="3" stroke-miterlimit="10" d="M15.6,6.3l1.1,0c0.4,0,0.7,0.3,0.7,0.7l0,17.8
				c0,0.4-0.3,0.7-0.7,0.7h-1.1c-0.4,0-0.7-0.3-0.7-0.7l0-17.8C14.8,6.6,15.1,6.3,15.6,6.3z"/>
			<path fill="#E5E01A" stroke="#2B2B2B" stroke-width="3" stroke-miterlimit="10" d="M13.7,2.9L13.7,2.9c-1.3,1.3-1.3,3.5,0,4.8
				l0,0C15,9,17.2,9,18.5,7.7l0,0c1.3-1.3,1.3-3.5,0-4.8l0,0C17.2,1.5,15,1.5,13.7,2.9z"/>
			<path fill="#E5E01A" stroke="#2B2B2B" stroke-width="3" stroke-miterlimit="10" d="M13.7,23.9L13.7,23.9c-1.3,1.3-1.3,3.5,0,4.8
				l0,0c1.3,1.3,3.5,1.3,4.8,0l0,0c1.3-1.3,1.3-3.5,0-4.8l0,0C17.2,22.6,15,22.6,13.7,23.9z"/>
			<path fill="#E5E01A" stroke="#2B2B2B" stroke-width="3" stroke-miterlimit="10" d="M6.4,11.9L6.4,11.9c0-0.5,0.4-0.9,0.8-0.9
				h17.6c0.5,0,0.9,0.4,0.9,0.9v0c0,0.5-0.4,0.8-0.9,0.8H7.3C6.8,12.7,6.4,12.3,6.4,11.9z"/>
			<path fill="#E5E01A" stroke="#2B2B2B" stroke-width="3" stroke-miterlimit="10" d="M9.4,16.2L9.4,16.2c0-0.5,0.4-0.9,0.9-0.9
				h12.4c0.5,0,0.9,0.4,0.9,0.9v0c0,0.5-0.4,0.9-0.9,0.9H10.2C9.8,17,9.4,16.6,9.4,16.2z"/>
			<path fill="#E5E01A" stroke="#2B2B2B" stroke-width="3" stroke-miterlimit="10" d="M11,20.1L11,20.1c0-0.5,0.4-0.9,0.9-0.9h8.5
				c0.5,0,0.9,0.4,0.9,0.9v0c0,0.5-0.4,0.8-0.9,0.8h-8.5C11.4,20.9,11,20.5,11,20.1z"/>
		</g>
		<g>
			<path fill="#AF853A" d="M15.6,6.3l1.1,0c0.4,0,0.7,0.3,0.7,0.7l0,17.8c0,0.4-0.3,0.7-0.7,0.7l-1.1,0c-0.4,0-0.7-0.3-0.7-0.7
				l0-17.8C14.8,6.6,15.1,6.3,15.6,6.3z"/>
			<path fill="#E5E01A" d="M13.7,2.9L13.7,2.9c-1.3,1.3-1.3,3.5,0,4.8l0,0C15,9,17.2,9,18.5,7.7l0,0c1.3-1.3,1.3-3.5,0-4.8l0,0
				C17.2,1.5,15,1.5,13.7,2.9z"/>
			<path fill="#E5E01A" d="M13.7,23.9L13.7,23.9c-1.3,1.3-1.3,3.5,0,4.8l0,0c1.3,1.3,3.5,1.3,4.8,0l0,0c1.3-1.3,1.3-3.5,0-4.8l0,0
				C17.2,22.6,15,22.6,13.7,23.9z"/>
			<path fill="#E5E01A" d="M6.4,11.9L6.4,11.9c0-0.5,0.4-0.9,0.8-0.9h17.6c0.5,0,0.9,0.4,0.9,0.9v0c0,0.5-0.4,0.8-0.9,0.8H7.3
				C6.8,12.7,6.4,12.3,6.4,11.9z"/>
			<path fill="#E5E01A" d="M9.4,16.2L9.4,16.2c0-0.5,0.4-0.9,0.9-0.9h12.4c0.5,0,0.9,0.4,0.9,0.9v0c0,0.5-0.4,0.9-0.9,0.9H10.2
				C9.8,17,9.4,16.6,9.4,16.2z"/>
			<path fill="#E5E01A" d="M11,20.1L11,20.1c0-0.5,0.4-0.9,0.9-0.9h8.5c0.5,0,0.9,0.4,0.9,0.9v0c0,0.5-0.4,0.8-0.9,0.8h-8.5
				C11.4,20.9,11,20.5,11,20.1z"/>
		</g>
	</g>
</g>
</svg>
